# ProBuilder 5.0.3
# https://unity3d.com/unity/features/worldbuilding/probuilder
# 2021-12-02 10:06:46 AM

mtllib ./Backpack.mtl
o Backpack

g Backpack
v 0.4581446 1.153358 0.2241474
v 0.412179 1.1106 0.2351744
v 0.1956935 1.516711 -0.07607058
v 0.1307388 1.456289 -0.06048822
v 0.4068542 1.070454 0.2369508
v 0.441077 1.012787 0.1559956
v 0.14126 1.489882 -0.1045405
v 0.2103628 1.373438 -0.2680057
v 0.4945502 1.04452 0.1559956
v 0.285927 1.418281 -0.2680057
v 0.4890188 1.126702 0.1196181
v 0.4670823 1.163666 0.1715097
v 0.3159369 1.418358 -0.1613096
v 0.2940004 1.455323 -0.109418
v 0.3042854 1.353487 0.0201075
v 0.2584433 1.326282 0.02010749
v 0.3526147 1.272048 -0.0942171
v 0.3067725 1.244844 -0.09421711
v 0.4603275 1.102188 0.2369508
v 0.4917997 1.063442 0.1773347
v 0.4756185 1.090708 0.2156117
v 0.2765727 1.454233 -0.2249178
v 0.2168242 1.534725 -0.1045405
v 0.2438997 1.50929 -0.1476285
v 0.2032584 1.532253 -0.1832939
v 0.2348647 1.478994 -0.2580599
v 0.2204501 1.523473 -0.2030017
v 0.2353942 1.498291 -0.2383524
v 0.2123111 1.50847 -0.1291746
v 0.166469 1.481265 -0.1291746
v 0.2606403 1.427031 -0.2434991
v 0.2147982 1.399827 -0.2434991

vt 0.09468678 -0.2404985
vt -0.01001662 -0.2579495
vt 0.02423814 0.2999085
vt -0.1237202 0.2752481
vt 0.07428658 -0.29769
vt -0.07428661 -0.29769
vt 0.15 0.30281
vt -0.15 0.30281
vt 0.05050194 -0.2883393
vt -0.05564587 -0.2883393
vt 0.075 0.316419
vt -0.075 0.316419
vt 0.04761711 -0.2201937
vt -0.04761712 -0.2201937
vt 0.04761711 0.2201937
vt -0.04761712 0.2201937
vt -0.04550163 0.1049073
vt 0.04549801 0.1049073
vt -0.04550163 -0.1049073
vt 0.04549801 -0.1049073
vt 0.05564587 -0.07428661
vt -0.05050194 -0.07428661
vt 0.05564587 0.07428658
vt -0.05050194 0.07428658
vt 0.06809276 -0.03512405
vt 0.06809276 0.03512404
vt 0.1301377 0.3056993
vt 0.06043267 -0.2953401
vt 0.04912795 0.3056994
vt 0.01950187 -0.2951258
vt -0.05394196 -0.2940925
vt -0.1202364 0.3073327
vt -0.01284902 -0.2940925
vt -0.03954623 0.3068381
vt -0.05293556 0.06860723
vt -0.05293556 -0.06860727
vt -0.07052466 0.03243874
vt -0.07052466 -0.03243876
vt 0.15 0.2492488
vt -0.15 0.2492488
vt 0.06860723 0.3075215
vt -0.06860727 0.3075215
vt -0.04912791 0.2110929
vt -0.1301377 0.2110929
vt -0.01635361 0.272758
vt -0.05547825 0.2772749
vt 0.1301377 0.1804316
vt 0.0491279 0.1804316
vt 0.05547827 0.2471134
vt 0.01635361 0.2416346
vt 0.07092271 0.2425885
vt -0.07092271 0.2425885
vt 0.03243876 0.3008614
vt -0.03243874 0.3008614
vt -0.075 0.1493346
vt 0.075 0.1493346
vt -0.04550068 0.1042417
vt 0.04549897 0.1042417
vt -0.07398304 -0.15
vt -0.07398304 0.15
vt -0.04448355 -0.1049072
vt -0.04448355 0.1049072
vt 0.0739831 0.15
vt 0.0739831 -0.15
vt 0.0444819 0.1049072
vt 0.0444819 -0.1049072
vt 0.075 -0.1493346
vt -0.075 -0.1493346
vt 0.04549897 -0.1042417
vt -0.04550068 -0.1042417
vt -0.04550068 0.3000999
vt 0.04549897 0.3000999
vt -0.04550163 0.06608267
vt 0.04549801 0.06608267
vt -0.1049072 0.3000998
vt 0.1049072 0.3000998
vt -0.1049073 0.06608253
vt 0.1049073 0.06608253
vt -0.04549897 0.3000999
vt 0.04550068 0.3000999
vt -0.04549801 0.06608268
vt 0.04550163 0.06608268
vt 0.03512405 -0.2160651
vt -0.03512404 -0.2160651
vt 0.04761711 -0.1213385
vt -0.04761712 -0.1213385
vt -0.04112727 0.307083
vt -0.03924807 -0.2944802
vt -0.07596952 0.2270688
vt -0.07596952 -0.2121745
vt 0.07282965 -0.2983449
vt 0.1027304 0.3024776
vt 0.1252003 -0.2184292
vt 0.1252003 0.2213555
vt -0.07092271 0.255466
vt 0.07092271 0.255466
vt -0.04761712 0.1713642
vt 0.04761711 0.1713642
vt 0.05564587 -0.2153183
vt -0.05050194 -0.2153183
vt 0.09702114 -0.1647535
vt -0.007709622 -0.179424
vt -0.01780236 0.3181958
vt 0.006760826 -0.2863734
vt -0.0715633 0.2962432
vt 0.02716324 -0.2382812
vt -0.009398546 -0.2859171
vt 0.004793881 0.3191708
vt 0.04095213 -0.2600719
vt -0.02197107 0.2791297
vt -0.075 0.1845283
vt 0.075 0.1845283
vt -0.119712 0.1311343
vt 0.02828496 0.1522767

vn -0.1627941 0.3003059 0.6270896
vn -0.4873086 -0.3257239 0.02602413
vn 0.2777351 -0.4680048 -0.4607329
vn 0.5037618 0.2989546 1.298847E-07
vn -0.3930217 0.6622722 -0.6379104
vn 0.3930217 -0.6622722 0.6379104
vn 0.5639229 0.1682594 -0.08060174
vn 0.5676288 0.148828 -0.1045437
vn 0.5713347 0.1293966 -0.1284858
vn 0.4363948 0.3559601 0.2085406
vn 0.4491191 0.3483049 0.1801604
vn 0.4618434 0.3406497 0.1517801
vn -0.3173901 -0.5275033 0.2415913
vn 0.1957828 0.6500353 -0.2058196
vn 0.0798518 0.7152904 -0.2484596
vn -0.03607913 0.7805455 -0.2910995
vn 0.2070393 0.5573394 -0.4708328
vn 0.2219696 0.5058541 -0.5133045
vn 0.2369 0.4543686 -0.5557761
vn 0.317393 0.5275007 -0.2415883
vn -0.3935314 0.6631309 -0.636701
vn -0.3913125 0.6632814 -0.6379067
vn -0.3947263 0.6612554 -0.6379067
vn -0.3925101 0.6614102 -0.6391166
vn 0.2303428 -0.3881451 -0.5448837
vn -0.5037602 -0.2989573 2.469747E-06
vn -0.2303424 0.3881446 0.5448842
vn 0.6361396 -0.1049061 0.3436489
vn 0.4888743 -0.2188103 -0.4154345
vn 0.2964089 -0.3334556 -0.4723444
vn 0.1039435 -0.4481008 -0.5292543
vn -0.2868884 0.300299 0.570514
vn -0.06375571 0.3946061 0.4899528
vn 0.1593769 0.4889133 0.4093915
vn 0.3540342 0.4926325 -0.2012605
vn 0.01237455 -0.02085242 0.7998216
vn 0.1349105 -0.1502261 0.8134995
vn 0.2574463 -0.2795998 0.8271773
vn 0.1255599 0.403148 0.5335499
vn 0.2314238 0.1452322 -0.0353906
vn 0.3372876 -0.1126837 -0.6043311
vn -0.3865045 0.1133875 0.5587063
vn -0.2287921 -0.1830272 0.04331855
vn -0.07107963 -0.4794419 -0.4720692
vn -0.3962179 0.6676576 0.1521052
vn -0.4596597 0.6916178 -0.07766753
vn -0.5231014 0.715578 -0.3074403

usemtl Secondary
f 3/3/1 2/2/1 1/1/1
f 3/3/1 4/4/1 2/2/1
f 7/7/2 6/6/2 5/5/2
f 7/7/2 8/8/2 6/6/2
f 8/11/3 9/10/3 6/9/3
f 8/11/3 10/12/3 9/10/3
f 13/15/4 12/14/4 11/13/4
f 13/15/4 14/16/4 12/14/4
f 17/19/5 16/18/5 15/17/5
f 17/19/5 18/20/5 16/18/5
f 19/23/6 6/22/6 9/21/6
f 19/23/6 5/24/6 6/22/6
f 20/25/6 19/23/6 9/21/6
f 20/25/6 21/26/6 19/23/6
f 22/29/8 9/28/8 10/27/7
f 22/29/8 20/30/9 9/28/8
f 21/33/11 23/32/11 19/31/10
f 21/33/11 24/34/12 23/32/11
f 27/37/5 26/36/5 25/35/5
f 27/37/5 28/38/5 26/36/5
f 25/41/13 10/40/13 23/39/13
f 25/41/13 26/42/13 10/40/13
f 27/45/15 23/44/15 24/43/14
f 27/45/15 25/46/16 23/44/15
f 26/49/18 22/48/18 10/47/17
f 26/49/18 28/50/19 22/48/18
f 28/53/20 24/52/20 22/51/20
f 28/53/20 27/54/20 24/52/20
f 29/57/21 7/56/21 23/55/21
f 29/57/21 30/58/21 7/56/21
f 31/61/22 23/60/22 10/59/22
f 31/61/22 29/62/22 23/60/22
f 30/65/23 8/64/23 7/63/23
f 30/65/23 32/66/23 8/64/23
f 32/69/24 10/68/24 8/67/24
f 32/69/24 31/70/24 10/68/24
f 15/73/25 30/72/25 29/71/25
f 15/73/25 16/74/25 30/72/25
f 17/77/26 29/76/26 31/75/26
f 17/77/26 15/78/26 29/76/26
f 16/77/4 32/76/4 30/75/4
f 16/77/4 18/78/4 32/76/4
f 18/81/27 31/80/27 32/79/27
f 18/81/27 17/82/27 31/80/27
f 11/85/28 21/84/28 20/83/28
f 11/85/28 12/86/28 21/84/28
f 13/89/30 20/88/30 22/87/29
f 13/89/30 11/90/31 20/88/30
f 12/93/33 24/92/33 21/91/32
f 12/93/33 14/94/34 24/92/33
f 14/97/35 22/96/35 24/95/35
f 14/97/35 13/98/35 22/96/35
f 1/101/37 5/100/37 19/99/36
f 1/101/37 2/102/38 5/100/37
f 3/105/40 19/104/40 23/103/39
f 3/105/40 1/106/41 19/104/40
f 2/109/43 7/108/43 5/107/42
f 2/109/43 4/110/44 7/108/43
f 4/113/46 23/112/46 7/111/45
f 4/113/46 3/114/47 23/112/46

g Arm
v 0.3196688 0.8145244 -0.3997583
v 0.3915835 1.05891 -0.3096056
v 0.1773705 1.067998 -0.3096058
v 0.3915835 1.05891 -0.2980657
v 0.1773705 1.067998 -0.2980659
v 0.1395062 1.308571 -0.1751892
v 0.1395062 1.308571 -0.1867291
v -0.02791462 1.303573 -0.186729
v -0.02791462 1.303573 -0.1751891
v 0.08090809 1.417319 -0.1202418
v 0.08090809 1.417319 -0.1317817

vt 0.123608 0.3363964
vt 0.2048197 0.07910597
vt -0.008970993 0.06296473
vt -0.2050106 0.0749401
vt -0.1233674 0.3366114
vt 0.008771542 0.05868611
vt 0.1354994 0.3319027
vt 0.2080162 0.06742132
vt -0.04384933 -0.2110316
vt -0.04311209 -0.2066061
vt 0.2087535 0.07184684
vt 0.01352882 0.05267873
vt -0.2178053 -0.1906739
vt -0.222611 -0.1919325
vt 0.008723158 0.05142017
vt 0.1735098 0.3115306
vt -0.06979624 -0.08481079
vt -0.1424498 -0.1397583
vt -0.1424498 -0.1282184
vt -0.06979625 -0.07327089
vt -0.2350342 -0.08481093
vt -0.2350342 -0.07327103
vt -0.03682795 -0.2078297
vt -0.09088677 -0.3315132
vt -0.2042798 -0.2093482
vt 0.03642017 -0.2124238
vt 0.2038653 -0.2141303
vt 0.09038419 -0.3362753

vn 0.01452377 0.342296 -0.9394801
vn -0.01612697 -0.380083 0.9248119
vn 0.9593267 -0.2822988 1.143606E-07
vn 0.7889048 0.3795693 9.404477E-08
vn 0.7036939 0.7105034 8.388685E-08
vn 0.8315103 0.2141023 9.912375E-08
vn -0.8129499 -0.5732517 -9.691117E-08
vn -0.7539116 -0.6569761 -8.987325E-08
vn -0.7932705 -0.6011598 -9.456519E-08
vn -0.8719882 -0.4895271 -1.039491E-07
vn 0.8803301 0.4743619 -1.83686E-07
vn -0.7225711 0.6912968 -8.613717E-08
vn 0.0161043 0.4568158 -0.8894094
vn -0.00300776 0.4529374 -0.8913886
vn -0.01882517 0.4494455 -0.8931095
vn 0.004461141 0.4543591 -0.8906428
vn 0.01939895 0.4572025 -0.8891512
vn -0.0161043 -0.4568158 0.8894094
vn -0.01939895 -0.4572025 0.8891512
vn -0.004461141 -0.4543591 0.8906428
vn 0.01882517 -0.4494455 0.8931095
vn 0.003007762 -0.4529374 0.8913886

usemtl White
f 33/115/48 35/117/48 34/116/48
f 36/118/49 37/120/49 33/119/49
f 39/124/52 38/123/52 36/122/51
f 34/125/53 36/122/51 33/121/50
f 39/124/52 36/122/51 34/125/53
f 35/126/54 37/129/56 40/127/55
f 33/130/57 37/129/56 35/126/54
f 37/129/56 41/128/55 40/127/55
f 42/132/58 38/131/58 39/134/58
f 43/133/58 42/132/58 39/134/58
f 41/135/59 42/132/59 43/133/59
f 41/135/59 43/133/59 40/136/59
f 35/117/63 39/137/60 34/116/64
f 35/117/63 43/138/61 39/137/60
f 40/139/62 43/138/61 35/117/63
f 37/120/67 42/142/69 41/141/68
f 38/140/65 42/142/69 37/120/67
f 36/118/66 38/140/65 37/120/67

g Arm(Clone)
v 0.3068298 0.8051747 0.3997584
v 0.3860052 1.047305 0.3096057
v 0.1721588 1.062782 0.3096059
v 0.3860052 1.047305 0.2980658
v 0.1721588 1.062782 0.298066
v 0.3030446 1.304378 0.1751892
v 0.3030446 1.304378 0.1867291
v -0.02600518 1.304378 0.186729
v -0.02600518 1.304378 0.1751891
v 0.08616336 1.414825 0.1202418
v 0.08616336 1.414825 0.1317817

vt -0.1242116 0.3361603
vt -0.2050481 0.07869264
vt 0.008761394 0.06290463
vt 0.2051931 0.07454048
vt 0.1239771 0.3363827
vt -0.008609546 0.0586597
vt -0.143299 0.3285222
vt -0.2091471 0.06230092
vt -0.1114829 -0.2179292
vt -0.1129248 -0.2133717
vt -0.210589 0.06685845
vt -0.01352858 0.05267892
vt 0.2178054 -0.1906739
vt 0.222611 -0.1919325
vt -0.008722967 0.05142031
vt -0.1735094 0.3115309
vt 0.1512869 0.08481085
vt -0.04618222 0.1397582
vt -0.04618222 0.1282183
vt 0.1512869 0.07327095
vt -0.1739028 0.0848109
vt -0.1739028 0.07327099
vt -0.1243845 -0.2066081
vt 0.09143853 -0.3313636
vt 0.2046084 -0.2090212
vt 0.1247348 -0.2110159
vt -0.2042476 -0.2137664
vt -0.09099066 -0.3361069

vn 0.02473146 0.3417102 0.9394801
vn -0.02746154 -0.3794324 -0.9248119
vn 0.9504755 -0.3108001 1.133055E-07
vn 0.951273 0.1011448 5.23023E-07
vn 0.9516717 0.3071175 1.342315E-06
vn 0.9510736 -0.00184156 1.133768E-07
vn -0.8296942 -0.5487372 -9.890724E-08
vn -0.7731805 -0.6341862 -9.217028E-08
vn -0.8108563 -0.5772202 -9.666159E-08
vn -0.8862078 -0.4632882 -1.056442E-07
vn 0.4537992 0.891104 5.409707E-08
vn -0.7016203 0.712551 -8.363966E-08
vn 0.01787777 0.4455009 0.8949695
vn -0.0007245227 0.4507197 0.8926525
vn -0.005405188 0.4498071 0.8931095
vn 0.01011678 0.4469363 0.8943495
vn 0.03179939 0.4393696 0.8977435
vn -0.01787777 -0.4455009 -0.8949695
vn -0.03179939 -0.4393696 -0.8977435
vn -0.01011678 -0.4469363 -0.8943495
vn 0.005405188 -0.4498071 -0.8931095
vn 0.0007245227 -0.4507197 -0.8926525

usemtl White
f 45/144/70 46/145/70 44/143/70
f 44/147/71 48/148/71 47/146/71
f 45/153/75 47/150/73 50/152/74
f 44/149/72 47/150/73 45/153/75
f 47/150/73 49/151/74 50/152/74
f 51/155/77 52/156/77 48/157/78
f 46/154/76 48/157/78 44/158/79
f 51/155/77 48/157/78 46/154/76
f 50/162/80 53/160/80 54/161/80
f 50/162/80 49/159/80 53/160/80
f 51/164/81 54/161/81 52/163/81
f 54/161/81 53/160/81 52/163/81
f 46/145/85 54/166/83 51/167/84
f 50/165/82 54/166/83 46/145/85
f 45/144/86 50/165/82 46/145/85
f 48/148/89 49/168/87 47/146/88
f 48/148/89 53/170/91 49/168/87
f 52/169/90 53/170/91 48/148/89

